<svg width="110" height="80" viewBox="0 0 110 80" fill="none" xmlns="http://www.w3.org/2000/svg">
<path d="M95.7576 18.3879V12.1212C95.7576 5.44242 90.3151 0 83.6364 0C79.6727 0 76.1576 1.92727 73.9394 4.88485C71.7212 1.92727 68.2061 0 64.2424 0C60.2788 0 56.7636 1.92727 54.5455 4.88485C52.3273 1.92727 48.8121 0 44.8485 0C40.8848 0 37.3697 1.92727 35.1515 4.88485C32.9333 1.92727 29.4182 0 25.4545 0C18.7758 0 13.3333 5.44242 13.3333 12.1212V18.3879C5.79394 19.5636 0 26.0727 0 33.9394C0 41.8061 5.79394 48.3394 13.3333 49.5152V70.303C13.3333 71.6364 14.4242 72.7273 15.7576 72.7273H18.1818V77.5758C18.1818 78.9091 19.2727 80 20.6061 80C21.9394 80 23.0303 78.9091 23.0303 77.5758V72.7273H86.0606V77.5758C86.0606 78.9091 87.1515 80 88.4848 80C89.8182 80 90.9091 78.9091 90.9091 77.5758V72.7273H93.3333C94.6667 72.7273 95.7576 71.6364 95.7576 70.303V49.5152C103.297 48.3515 109.091 41.8061 109.091 33.9394C109.091 26.0727 103.297 19.5636 95.7576 18.3879ZM18.1818 12.1212C18.1818 8.10909 21.4424 4.84848 25.4545 4.84848C29.4667 4.84848 32.7273 8.10909 32.7273 12.1212C32.7273 13.4545 33.8182 14.5455 35.1515 14.5455C36.4848 14.5455 37.5758 13.4545 37.5758 12.1212C37.5758 8.10909 40.8364 4.84848 44.8485 4.84848C48.8606 4.84848 52.1212 8.10909 52.1212 12.1212C52.1212 13.4545 53.2121 14.5455 54.5455 14.5455C55.8788 14.5455 56.9697 13.4545 56.9697 12.1212C56.9697 8.10909 60.2303 4.84848 64.2424 4.84848C68.2545 4.84848 71.5151 8.10909 71.5151 12.1212C71.5151 13.4545 72.6061 14.5455 73.9394 14.5455C75.2727 14.5455 76.3636 13.4545 76.3636 12.1212C76.3636 8.10909 79.6242 4.84848 83.6364 4.84848C87.6485 4.84848 90.9091 8.10909 90.9091 12.1212V18.3879C83.3697 19.5636 77.5758 26.0727 77.5758 33.9394V40H31.5151V33.9394C31.5151 26.0727 25.7212 19.5636 18.1818 18.3879V12.1212ZM77.5758 44.8485V52.1212H31.5151V44.8485H77.5758ZM93.3333 44.8485C92 44.8485 90.9091 45.9394 90.9091 47.2727V67.8788H18.1818V47.2727C18.1818 45.9394 17.0909 44.8485 15.7576 44.8485C9.74545 44.8485 4.84848 39.9515 4.84848 33.9394C4.84848 27.9273 9.74545 23.0303 15.7576 23.0303C21.7697 23.0303 26.6667 27.9273 26.6667 33.9394V54.5455C26.6667 55.8788 27.7576 56.9697 29.0909 56.9697H80C81.3333 56.9697 82.4242 55.8788 82.4242 54.5455V33.9394C82.4242 27.9273 87.3212 23.0303 93.3333 23.0303C99.3454 23.0303 104.242 27.9273 104.242 33.9394C104.242 39.9515 99.3454 44.8485 93.3333 44.8485Z" fill="url(#paint0_linear)"/>
<defs>
<linearGradient id="paint0_linear" x1="54.5455" y1="0" x2="54.5455" y2="80" gradientUnits="userSpaceOnUse">
<stop stop-color="#005E7F"/>
<stop offset="1" stop-color="#61B6CD"/>
</linearGradient>
</defs>
</svg>
