<svg width="69" height="80" viewBox="0 0 69 80" fill="none" xmlns="http://www.w3.org/2000/svg">
<path d="M68.1612 10.0572C67.6522 9.54969 66.9628 9.23078 66.2444 9.23078C66.2417 9.23078 66.2388 9.23078 66.2361 9.23078L57.5566 9.30391V7.78281C57.5566 3.51172 54.1447 0 49.8736 0H11.1986C6.9275 0 3.43891 3.51172 3.43891 7.78281V9.23078H2.715C1.21562 9.23078 0 10.4464 0 11.9458C0 13.4452 1.21562 14.6608 2.715 14.6608H3.43891V16.1955C3.43891 20.4666 6.92734 23.8916 11.1986 23.8916H49.8738C54.1448 23.8916 57.5567 20.4666 57.5567 16.1955V14.8216L63.5295 14.7377V21.5461L29.2709 40.5561C28.4083 41.0348 27.8733 41.9436 27.8733 42.93V49.0498H24.0436C22.5442 49.0498 21.3575 50.3348 21.3575 51.8342V77.248C21.3575 78.7473 22.5442 80 24.0436 80H37.0287C38.5281 80 39.8189 78.7473 39.8189 77.248V51.8342C39.8189 50.3348 38.5281 49.0498 37.0287 49.0498H33.3031V44.5286L67.5616 25.5184C68.4242 25.0397 68.9592 24.1309 68.9592 23.1445V12.0141C68.9594 11.2927 68.672 10.5666 68.1612 10.0572ZM52.1267 16.1458C52.1267 17.4247 51.09 18.4616 49.8109 18.4616H11.1847C9.90563 18.4616 8.86891 17.4248 8.86891 16.1458V7.74578C8.86891 6.46672 9.90563 5.43 11.1847 5.43H49.8109C51.0898 5.43 52.1267 6.46672 52.1267 7.74578V16.1458ZM34.3892 74.5702H26.7873V72.2172H33.6652C33.8892 72.2172 34.0272 72.187 34.3891 72.1359V74.5702H34.3892ZM34.3892 54.4797V66.8686C34.0272 66.8173 33.8894 66.7873 33.6653 66.7873H26.7875V54.4797H34.3892Z" fill="url(#paint0_linear)"/>
<defs>
<linearGradient id="paint0_linear" x1="34.4796" y1="0" x2="34.4796" y2="80" gradientUnits="userSpaceOnUse">
<stop stop-color="#005E7F"/>
<stop offset="1" stop-color="#61B6CD"/>
</linearGradient>
</defs>
</svg>
