<svg width="16" height="17" viewBox="0 0 16 17" fill="none" xmlns="http://www.w3.org/2000/svg">
<path d="M-3.05176e-05 8.68563C0.000884801 12.5555 2.81498 15.8506 6.63708 16.4571V10.9591H4.6413V8.68563H6.63944V6.95496C6.55011 6.13489 6.83022 5.31758 7.40379 4.7247C7.97737 4.13182 8.78495 3.82482 9.60753 3.88696C10.198 3.89649 10.7869 3.94908 11.3697 4.04429V5.9787H10.3753C10.033 5.93387 9.68884 6.04693 9.43979 6.28603C9.19074 6.52513 9.06376 6.8644 9.09462 7.20826V8.68563H11.2745L10.926 10.9599H9.09462V16.4571C13.2281 15.8039 16.1267 12.0288 15.6904 7.86676C15.2542 3.70474 11.6358 0.612795 7.45665 0.830898C3.27751 1.049 0.000633804 4.5008 -3.05176e-05 8.68563Z" fill="white"/>
</svg>
