<svg width="101" height="89" viewBox="0 0 101 89" fill="none" xmlns="http://www.w3.org/2000/svg">
<path d="M93.5765 7.36103C88.7889 2.61425 82.4235 0 75.6529 0C68.8823 0 62.5168 2.61425 57.7293 7.36103C52.9418 12.1078 50.3051 18.419 50.3051 25.132C50.3051 30.6468 52.0858 35.8897 55.3754 40.2174L32.3789 63.0182L25.0019 55.704C24.9105 55.6133 24.9105 55.46 25.0019 55.3694L25.4837 54.8917C26.323 54.0593 26.1991 53.3389 26.0507 52.9835C25.9631 52.7741 25.5968 52.0905 24.5563 52.0905C24.3933 52.0905 24.2165 52.1076 24.0301 52.1412L9.24463 54.8049C7.97818 55.033 6.84943 56.1521 6.61915 57.408L5.82615 61.7353L4.63822 60.5575C4.36808 60.2896 4.00845 60.142 3.62568 60.142C3.24338 60.142 2.88399 60.2894 2.61314 60.5575L0.41863 62.7333C-0.139543 63.2867 -0.139543 64.1875 0.41863 64.7409L4.52844 68.8157L3.93257 72.0673C3.80871 72.7426 3.91395 73.2847 4.24518 73.6782C4.51174 73.9947 4.90454 74.1762 5.32263 74.1762C5.79394 74.1762 6.25976 73.9514 6.70672 73.5083L7.18853 73.0306C7.24485 72.9747 7.31143 72.9629 7.35725 72.9629C7.40307 72.9629 7.46965 72.9745 7.52597 73.0306L14.903 80.3447L12.2842 82.9413C10.8862 84.3273 10.8862 86.5743 12.2842 87.9604C12.9831 88.6534 13.8993 89 14.8151 89C15.7313 89 16.6474 88.6536 17.3461 87.9604L60.4371 45.2363C64.8023 48.4979 70.09 50.2635 75.6522 50.2635C82.4228 50.2635 88.7882 47.6492 93.5757 42.9024C98.3633 38.1557 101 31.8445 101 25.1315C101 18.4185 98.364 12.1078 93.5765 7.36103ZM26.6203 69.8485L21.7924 74.6352C21.4211 75.0034 20.8138 75.0034 20.4425 74.6352L14.8326 69.0731C14.4612 68.705 14.4612 68.1028 14.8326 67.7346L19.6604 62.9479C20.0318 62.5797 20.6391 62.5797 21.0104 62.9479L26.6203 68.51C26.9916 68.8782 26.9916 69.4805 26.6203 69.8485ZM88.5142 37.8838C85.0788 41.29 80.5113 43.1658 75.6529 43.1658C70.7945 43.1658 66.2269 41.29 62.7915 37.8838C59.3561 34.4776 57.4642 29.949 57.4642 25.132C57.4642 20.3149 59.3561 15.7863 62.7915 12.3801C66.2269 8.9742 70.7945 7.09816 75.6529 7.09816C80.5113 7.09816 85.0788 8.97396 88.5142 12.3801C91.9497 15.7863 93.8416 20.3149 93.8416 25.132C93.8416 29.949 91.9494 34.4776 88.5142 37.8838Z" fill="url(#paint0_linear)"/>
<defs>
<linearGradient id="paint0_linear" x1="50.5" y1="0" x2="50.5" y2="89" gradientUnits="userSpaceOnUse">
<stop stop-color="#BDC3C7"/>
<stop offset="1" stop-color="#2C3E50"/>
</linearGradient>
</defs>
</svg>
