<svg width="19" height="19" viewBox="0 0 19 19" fill="none" xmlns="http://www.w3.org/2000/svg">
<path d="M9.44202 18.221C6.98202 18.221 6.69202 18.208 5.73202 18.166C4.98339 18.1414 4.24445 17.9892 3.54702 17.716C2.34033 17.2464 1.38616 16.2919 0.917017 15.085C0.654323 14.3851 0.512634 13.6455 0.498017 12.898C0.442017 11.94 0.442017 11.626 0.442017 9.18503C0.442017 6.71803 0.455017 6.43003 0.498017 5.47503C0.512954 4.72855 0.654638 3.99004 0.917017 3.29103C1.38565 2.08256 2.34137 1.1272 3.55002 0.659028C4.24866 0.39523 4.98736 0.253172 5.73402 0.239028C6.68902 0.185028 7.00302 0.185028 9.44202 0.185028C11.922 0.185028 12.207 0.198028 13.152 0.239028C13.9006 0.253295 14.6413 0.395338 15.342 0.659028C16.5503 1.12773 17.5059 2.0829 17.975 3.29103C18.2421 4.00022 18.3846 4.75028 18.396 5.50803C18.452 6.46603 18.452 6.77903 18.452 9.21903C18.452 11.659 18.438 11.979 18.396 12.926C18.3811 13.6742 18.2391 14.4144 17.976 15.115C17.5057 16.3227 16.5501 17.2776 15.342 17.747C14.6423 18.0092 13.9031 18.1509 13.156 18.166C12.201 18.221 11.888 18.221 9.44202 18.221ZM9.40802 1.76803C6.96202 1.76803 6.70802 1.78003 5.75302 1.82303C5.183 1.83058 4.6185 1.93577 4.08402 2.13403C3.29477 2.43604 2.67024 3.05802 2.36502 3.84603C2.16523 4.38633 2.06002 4.95701 2.05402 5.53303C2.00102 6.50203 2.00102 6.75603 2.00102 9.18503C2.00102 11.585 2.01002 11.876 2.05402 12.839C2.06297 13.4092 2.16811 13.9738 2.36502 14.509C2.67069 15.2965 3.29511 15.918 4.08402 16.22C4.61813 16.4196 5.18287 16.5248 5.75302 16.531C6.72102 16.587 6.97602 16.587 9.40802 16.587C11.861 16.587 12.115 16.575 13.062 16.531C13.6324 16.5241 14.1974 16.4189 14.732 16.22C15.5165 15.9154 16.1369 15.2953 16.442 14.511C16.6414 13.9703 16.7466 13.3993 16.753 12.823H16.764C16.807 11.867 16.807 11.612 16.807 9.16903C16.807 6.72603 16.796 6.46903 16.753 5.51403C16.744 4.94448 16.6389 4.38054 16.442 3.84603C16.1376 3.0606 15.5171 2.43932 14.732 2.13403C14.1975 1.93477 13.6325 1.82955 13.062 1.82303C12.095 1.76803 11.842 1.76803 9.40802 1.76803ZM9.44202 13.804C7.57201 13.8052 5.88544 12.6798 5.16888 10.9525C4.45232 9.22521 4.84692 7.23636 6.16865 5.91349C7.49037 4.59062 9.47888 4.1943 11.2068 4.90936C12.9347 5.62442 14.0616 7.31002 14.062 9.18003C14.0593 11.7311 11.9931 13.7991 9.44202 13.804ZM9.44202 6.17803C7.78516 6.17803 6.44202 7.52117 6.44202 9.17803C6.44202 10.8349 7.78516 12.178 9.44202 12.178C11.0989 12.178 12.442 10.8349 12.442 9.17803C12.4382 7.52277 11.0973 6.18188 9.44202 6.17803ZM14.242 5.46503C13.6474 5.46282 13.1669 4.97962 13.168 4.38504C13.1691 3.79046 13.6514 3.30904 14.246 3.30904C14.8406 3.30904 15.3229 3.79045 15.324 4.38503C15.3243 4.67189 15.2103 4.94705 15.0073 5.14971C14.8042 5.35236 14.5289 5.46583 14.242 5.46503Z" fill="white"/>
</svg>
