<svg width="80" height="80" viewBox="0 0 80 80" fill="none" xmlns="http://www.w3.org/2000/svg">
<g clip-path="url(#clip0)">
<path d="M74.2863 42.966L41.518 13.3978C40.6559 12.6194 39.3451 12.6194 38.4827 13.3978L26.6149 24.1065V23.5434C26.6149 22.2925 25.6007 21.2779 24.3495 21.2779H14.9642C13.7129 21.2779 12.6987 22.2925 12.6987 23.5434V36.6635L5.71405 42.9662C5.01811 43.594 4.78061 44.586 5.11717 45.4612C5.45358 46.336 6.29436 46.9135 7.2317 46.9135H13.2378V77.7347C13.2378 78.9856 14.252 80.0002 15.5032 80.0002H64.4966C65.7475 80.0002 66.7621 78.9856 66.7621 77.7347V46.9132H72.7684C73.7059 46.9132 74.5466 46.3357 74.883 45.4609C75.2194 44.586 74.9822 43.594 74.2863 42.966ZM17.2296 25.8089H22.0839V28.1946L17.2296 32.5749V25.8089ZM64.4967 42.3824C63.2458 42.3824 62.2313 43.397 62.2313 44.6479V75.4691H17.7689V46.9051H49.6591C50.91 46.9051 51.9246 45.8905 51.9246 44.6396C51.9246 43.3887 50.91 42.3741 49.6591 42.3741H15.3797C15.3248 42.3741 15.2714 42.3785 15.2176 42.3823H13.1239L39.9999 18.1309L66.8759 42.3823H64.4967V42.3824Z" fill="url(#paint0_linear)"/>
<path d="M58.8891 44.1978C58.8596 44.0526 58.8166 43.9098 58.76 43.7717C58.7035 43.6357 58.6332 43.5043 58.5516 43.382C58.4679 43.2575 58.3727 43.1418 58.2685 43.0376C57.7429 42.512 56.9591 42.2693 56.225 42.4192C56.0799 42.4464 55.9371 42.4917 55.8015 42.5482C55.6633 42.6048 55.5319 42.6751 55.4096 42.7567C55.2851 42.8382 55.1694 42.9334 55.0652 43.0376C54.961 43.1418 54.8658 43.2573 54.7843 43.382C54.7027 43.5043 54.6326 43.6357 54.5758 43.7717C54.5193 43.9098 54.4761 44.0526 54.4468 44.1978C54.4174 44.3428 54.4015 44.4923 54.4015 44.6393C54.4015 44.7865 54.4174 44.9364 54.4468 45.0811C54.4761 45.2257 54.5194 45.3692 54.5761 45.5071C54.6327 45.6432 54.703 45.7746 54.7846 45.897C54.8661 46.0215 54.9613 46.1371 55.0655 46.2414C55.1697 46.3456 55.2852 46.4407 55.4099 46.5223C55.5322 46.6036 55.6636 46.674 55.8018 46.7307C55.9377 46.7873 56.0802 46.8326 56.2254 46.8621C56.3704 46.8915 56.5199 46.905 56.6669 46.905C57.263 46.905 57.8474 46.6628 58.2686 46.2412C58.3729 46.137 58.468 46.0215 58.5496 45.8968C58.6311 45.7745 58.7013 45.6431 58.758 45.507C58.8146 45.369 58.8599 45.2261 58.8894 45.0811C58.9188 44.9361 58.9322 44.7865 58.9322 44.6393C58.9319 44.4923 58.9183 44.3425 58.8891 44.1978Z" fill="url(#paint1_linear)"/>
<path d="M53.5516 57.8207C53.323 53.0551 49.7719 49.3223 45.4666 49.3223C43.2085 49.3223 41.2991 50.2898 40.0241 51.1759C38.7652 50.2841 36.8667 49.3223 34.5337 49.3223C33.4574 49.3223 32.4282 49.5555 31.4865 49.9799C28.6609 51.253 26.6206 54.2465 26.4493 57.8207C26.3149 60.6276 27.2878 62.6276 28.031 63.8876C29.639 66.6135 35.9398 70.9424 38.2106 72.4474C38.4456 72.603 38.6374 72.7285 38.7762 72.819C39.1515 73.0627 39.581 73.1846 40.0106 73.1846C40.4399 73.1846 40.8695 73.0627 41.2446 72.8191C42.7224 71.8594 50.1862 66.9176 51.971 63.8855C52.7135 62.6237 53.6854 60.6219 53.5516 57.8207ZM49.0277 58.5763C49.0115 59.0527 48.9371 59.5044 48.8012 59.958C48.644 60.4822 48.4058 61.0105 48.066 61.5876C47.4838 62.5766 45.2345 64.4358 42.8238 66.2113C42.719 66.2885 42.6138 66.3655 42.5087 66.4424C42.298 66.596 42.0868 66.7486 41.8757 66.8997C41.2423 67.3529 40.6116 67.7919 40.0099 68.1999C39.6776 67.9749 39.3432 67.7447 39.009 67.5116C35.7801 65.2572 32.596 62.7093 31.9331 61.5857C31.2015 60.3455 30.9149 59.2846 30.9746 58.0377C31.0853 55.7304 32.6817 53.8532 34.5334 53.8532C36.6424 53.8532 38.3015 55.6365 38.307 55.6419C38.7293 56.1169 39.3313 56.3927 39.9671 56.4019C39.9782 56.4021 39.9893 56.4021 40.0002 56.4021C40.0168 56.4021 40.0329 56.3999 40.0495 56.3996C40.6563 56.3927 41.2318 56.1332 41.6488 55.6907C41.666 55.6724 43.4709 53.853 45.4668 53.853C47.3188 53.853 48.9152 55.7302 49.0259 58.0373C49.0333 58.1949 49.0355 58.3488 49.0324 58.5001C49.0318 58.5262 49.0287 58.5507 49.0277 58.5763Z" fill="url(#paint2_linear)"/>
<path d="M30.1243 6.76592C29.9428 2.97203 27.0901 0 23.6303 0C22.0375 0 20.6679 0.602186 19.6772 1.22562C18.6939 0.598749 17.3256 0 15.6836 0C12.2236 0 9.37108 2.97203 9.1892 6.76592C9.08358 8.97155 9.84342 10.5356 10.424 11.5197C11.75 13.7672 16.8872 17.2129 18.43 18.2156C18.8053 18.4593 19.2348 18.5812 19.6643 18.5812C20.0937 18.5812 20.5229 18.4593 20.8981 18.2157C22.4361 17.2172 27.5571 13.7828 28.8906 11.5178C29.4707 10.532 30.2298 8.96733 30.1243 6.76592ZM24.9859 9.2192C24.5306 9.99326 22.0737 11.9339 19.6643 13.5904C17.2443 11.9273 14.7787 9.9842 14.3265 9.21764C13.8547 8.41748 13.6773 7.76999 13.7151 6.9828C13.7787 5.65358 14.6803 4.53093 15.6836 4.53093C16.7098 4.53093 17.672 5.3153 17.9703 5.63077C18.3873 6.11655 18.975 6.38468 19.6154 6.40108C20.264 6.4178 20.8634 6.14077 21.3053 5.67202C21.5187 5.44546 22.6036 4.53062 23.6301 4.53062C24.6336 4.53062 25.5351 5.65343 25.5986 6.98249C25.6361 7.76795 25.4586 8.41592 24.9859 9.2192Z" fill="url(#paint3_linear)"/>
</g>
<defs>
<linearGradient id="paint0_linear" x1="40.0001" y1="12.814" x2="40.0001" y2="80.0002" gradientUnits="userSpaceOnUse">
<stop stop-color="#005E7F"/>
<stop offset="1" stop-color="#61B6CD"/>
</linearGradient>
<linearGradient id="paint1_linear" x1="56.6668" y1="42.3755" x2="56.6668" y2="46.905" gradientUnits="userSpaceOnUse">
<stop stop-color="#005E7F"/>
<stop offset="1" stop-color="#61B6CD"/>
</linearGradient>
<linearGradient id="paint2_linear" x1="40.0004" y1="49.3223" x2="40.0004" y2="73.1846" gradientUnits="userSpaceOnUse">
<stop stop-color="#005E7F"/>
<stop offset="1" stop-color="#61B6CD"/>
</linearGradient>
<linearGradient id="paint3_linear" x1="19.6568" y1="0" x2="19.6568" y2="18.5812" gradientUnits="userSpaceOnUse">
<stop stop-color="#005E7F"/>
<stop offset="1" stop-color="#61B6CD"/>
</linearGradient>
<clipPath id="clip0">
<rect width="80" height="80" fill="white"/>
</clipPath>
</defs>
</svg>
