<svg width="14" height="15" viewBox="0 0 14 15" fill="none" xmlns="http://www.w3.org/2000/svg">
<path d="M4.55661 5.01142C3.75176 5.6953 3.45682 6.94253 4.15178 7.94311C4.80211 8.87944 5.62131 9.69846 6.55742 10.3485C7.55804 11.0433 8.80522 10.7483 9.48903 9.94342L9.49664 9.94695C10.3701 10.3516 11.2978 10.6289 12.25 10.7702V12.75L12.2492 12.75L12.2471 12.75C6.26614 12.7585 1.74361 8.18334 1.75001 2.25269V2.25H3.72953L3.72966 2.25088C3.871 3.20299 4.1482 4.1299 4.55285 5.00331L4.55661 5.01142ZM12.2492 14.25H13C13.4142 14.25 13.75 13.9142 13.75 13.5V10.1233C13.75 9.7516 13.4778 9.43598 13.1101 9.38142L12.4695 9.28634C11.6592 9.16609 10.8704 8.93019 10.1271 8.58589L9.56249 8.32433C9.23528 8.17275 8.84652 8.2755 8.63693 8.56894L8.38132 8.92682C8.15729 9.24047 7.72958 9.33627 7.41298 9.11642C6.62376 8.56839 5.93205 7.87682 5.38377 7.08742C5.16386 6.77081 5.25967 6.34303 5.57338 6.119L5.93108 5.86355C6.22457 5.65396 6.32733 5.26516 6.17572 4.93793L5.91388 4.37275C5.56956 3.62955 5.33367 2.84081 5.2134 2.03062L5.11828 1.38987C5.0637 1.02222 4.74809 0.75 4.37641 0.75H1.00001C0.585794 0.75 0.250008 1.08579 0.250008 1.5V2.25107C0.242718 9.0059 5.43267 14.2597 12.2492 14.25Z" fill="white"/>
</svg>
