<svg width="127" height="80" viewBox="0 0 127 80" fill="none" xmlns="http://www.w3.org/2000/svg">
<path d="M5.41789 31.4289L5.39886 31.6912C5.3386 33.3626 5.86823 34.8735 6.89715 35.9392C8.41719 37.5177 10.8597 37.9032 13.1223 36.8829L19.5228 33.4079L25.7026 36.7778L25.9215 36.8856C26.7769 37.2716 27.6404 37.4683 28.4935 37.4683C29.903 37.4683 31.2002 36.9269 32.1484 35.9414C33.1774 34.8758 33.7079 33.3671 33.6445 31.6935L32.7954 24.4131L37.4874 19.5898L37.7474 19.2885C38.9866 17.6579 39.3522 15.7224 38.7519 13.9744C38.1548 12.227 36.6773 10.9244 34.6997 10.3975L27.4397 9.21587L24.3924 3.08405L24.2043 2.75603C23.0635 1.00538 21.3201 0.00500488 19.4231 0.00500488C17.6321 0.00500488 15.9399 0.918389 14.7765 2.51409L10.9462 9.2118L4.62185 10.2724L4.26664 10.3526C2.30939 10.9131 0.85368 12.2365 0.269223 13.9853C-0.313423 15.7373 0.0599053 17.6688 1.28953 19.2903L6.24383 24.4127L5.41789 31.4289ZM15.0687 15.1008L19.361 7.55085L23.1088 15.0944L31.4833 16.4391L25.9795 22.0943L26.9191 30.0407L19.5183 26.0093L12.1197 30.0389L13.0598 22.0948L7.48795 16.3716L15.0687 15.1008Z" fill="url(#paint0_linear)"/>
<path d="M81.4205 19.2861C82.6596 17.6559 83.0257 15.72 82.4249 13.9721C81.8246 12.2246 80.3485 10.922 78.3718 10.3955L71.1127 9.21348L68.0654 3.08121L67.8774 2.75364C66.7352 1.00299 64.9931 0.00170898 63.0966 0.00170898C61.3056 0.00170898 59.613 0.916453 58.4499 2.5117L54.6192 9.2094L48.2949 10.2696L47.9397 10.3498C45.9829 10.9102 44.5267 12.2327 43.9454 13.9825C43.3605 15.7345 43.7329 17.6659 44.9648 19.2879L49.9191 24.4103L49.0905 31.4306L49.0705 31.6906C49.008 33.362 49.5413 34.873 50.5665 35.9409C52.087 37.5193 54.5273 37.9054 56.7917 36.8851L63.1904 33.41L69.3689 36.7795L69.5886 36.8873C70.4431 37.2733 71.308 37.47 72.1602 37.47C73.5702 37.47 74.8668 36.9285 75.816 35.9431C76.8436 34.8775 77.3741 33.3688 77.3111 31.6952L76.463 24.4162L81.1572 19.5919L81.4205 19.2861ZM69.6516 22.0942L70.5921 30.0406L63.1917 26.0092L55.7954 30.0387L56.7333 22.0947L51.1628 16.3715L58.7431 15.0984L63.0345 7.54846L66.7823 15.092L75.1559 16.4367L69.6516 22.0942Z" fill="url(#paint1_linear)"/>
<path d="M122.112 10.3938L114.851 9.21178L111.806 3.07996L111.62 2.75193C110.478 1.00355 108.736 0 106.839 0C105.048 0 103.355 0.914744 102.191 2.51L98.362 9.2077L92.0376 10.2679L91.6824 10.3485C89.7247 10.909 88.2699 12.2315 87.6864 13.9812C87.1028 15.7332 87.4748 17.6647 88.7076 19.2862L93.6619 24.4086L92.831 31.4289L92.8119 31.6912C92.7526 33.3626 93.2813 34.8735 94.3116 35.9391C95.8316 37.5176 98.2719 37.9032 100.536 36.8829L106.937 33.4079L113.116 36.7778L113.335 36.8856C114.19 37.2716 115.054 37.4683 115.907 37.4683C117.317 37.4683 118.614 36.9268 119.562 35.9414C120.59 34.8758 121.121 33.3671 121.058 31.6935L120.21 24.4145L124.901 19.5902L125.161 19.2889C126.398 17.6583 126.767 15.7228 126.166 13.9749C125.567 12.2251 124.089 10.9189 122.112 10.3938ZM113.394 22.0943L114.335 30.0407L106.935 26.0093L99.5359 30.0388L100.472 22.0948L94.9028 16.3716L102.481 15.0985L106.774 7.54856L110.523 15.0921L118.896 16.4368L113.394 22.0943Z" fill="url(#paint2_linear)"/>
<path d="M39.171 42.5352C37.38 42.5352 35.6864 43.4508 34.5243 45.0429L30.6918 51.7415L24.3674 52.803L24.0122 52.8837C22.0541 53.4459 20.597 54.7698 20.0148 56.5205C19.4326 58.2711 19.8064 60.2039 21.0392 61.8236L25.9912 66.9428L25.1612 73.9654L25.1422 74.225C25.0788 75.8977 25.6116 77.4073 26.6382 78.4729C28.1605 80.0505 30.6008 80.4397 32.8679 79.4162L39.2643 75.9421L45.4442 79.3107L45.6589 79.4162C46.5129 79.805 47.3801 79.9998 48.2355 79.9998C49.6445 79.9998 50.9421 79.4588 51.8881 78.4752C52.9157 77.4096 53.4467 75.9018 53.3842 74.2273L52.5351 66.9451L57.2294 62.1199L57.4872 61.8241C58.7254 60.1912 59.0933 58.2589 58.4957 56.5123C57.8985 54.7639 56.4193 53.4591 54.4403 52.9326L47.1803 51.7465L44.1343 45.6165L43.9463 45.2866C42.8078 43.5373 41.0675 42.5352 39.171 42.5352ZM51.2289 58.9774L45.7251 64.6317L46.6647 72.5776L39.2661 68.5476L31.8675 72.5736L32.8054 64.6317L27.2358 58.9077L34.8143 57.6345L39.1057 50.0833L42.8535 57.6278L51.2289 58.9774Z" fill="url(#paint3_linear)"/>
<path d="M102.299 52.9322L95.0401 51.746L91.9933 45.616L91.8048 45.2862C90.663 43.5373 88.921 42.5352 87.024 42.5352C85.233 42.5352 83.5413 43.4508 82.3805 45.0429L78.5467 51.7415L72.2223 52.803L71.8671 52.8837C69.9094 53.4459 68.4523 54.7698 67.871 56.5205C67.2875 58.2688 67.6594 60.2039 68.8922 61.8236L73.8447 66.9428L73.0156 73.9654L72.9966 74.2273C72.9354 75.8982 73.466 77.4096 74.494 78.4752C76.0163 80.0546 78.4565 80.4397 80.7209 79.4162L87.1173 75.9421L93.2999 79.3107L93.5138 79.4162C94.3678 79.805 95.235 79.9998 96.0913 79.9998C97.4989 79.9998 98.7979 79.4588 99.743 78.4752C100.771 77.4096 101.301 75.9018 101.24 74.2273L100.39 66.9451L105.082 62.1199L105.34 61.8241C106.579 60.1912 106.947 58.2571 106.349 56.5082C105.752 54.7612 104.276 53.4586 102.299 52.9322ZM93.5813 64.6317L94.52 72.5776L87.1192 68.5476L79.7206 72.5736L80.657 64.6317L75.0897 58.9077L82.6682 57.6345L86.9588 50.0833L90.7074 57.6278L99.0806 58.9752L93.5813 64.6317Z" fill="url(#paint4_linear)"/>
<defs>
<linearGradient id="paint0_linear" x1="19.5173" y1="0.00500488" x2="19.5173" y2="37.4683" gradientUnits="userSpaceOnUse">
<stop stop-color="#005E7F"/>
<stop offset="1" stop-color="#61B6CD"/>
</linearGradient>
<linearGradient id="paint1_linear" x1="63.1911" y1="0.00170898" x2="63.1911" y2="37.47" gradientUnits="userSpaceOnUse">
<stop stop-color="#005E7F"/>
<stop offset="1" stop-color="#61B6CD"/>
</linearGradient>
<linearGradient id="paint2_linear" x1="106.932" y1="0" x2="106.932" y2="37.4683" gradientUnits="userSpaceOnUse">
<stop stop-color="#005E7F"/>
<stop offset="1" stop-color="#61B6CD"/>
</linearGradient>
<linearGradient id="paint3_linear" x1="39.261" y1="42.5352" x2="39.261" y2="79.9998" gradientUnits="userSpaceOnUse">
<stop stop-color="#005E7F"/>
<stop offset="1" stop-color="#61B6CD"/>
</linearGradient>
<linearGradient id="paint4_linear" x1="87.1151" y1="42.5352" x2="87.1151" y2="79.9998" gradientUnits="userSpaceOnUse">
<stop stop-color="#005E7F"/>
<stop offset="1" stop-color="#61B6CD"/>
</linearGradient>
</defs>
</svg>
