<svg width="80" height="80" viewBox="0 0 80 80" fill="none" xmlns="http://www.w3.org/2000/svg">
<g clip-path="url(#clip0)">
<path d="M76.5085 67.1655L61.1746 51.8321C61.1148 51.7723 61.0502 51.7199 60.9823 51.6749L60.992 49.9762L65.5766 49.3346C65.9316 49.285 66.2476 49.0837 66.4427 48.7832C66.638 48.4826 66.6933 48.1122 66.5941 47.7675L65.3152 43.3183L69.5333 41.4109C69.8601 41.2631 70.1065 40.9812 70.2091 40.6378C70.3118 40.2944 70.2604 39.9231 70.0682 39.6206L67.5876 35.7119L71.0974 32.6935C71.3691 32.4597 71.5263 32.1196 71.528 31.7613C71.5296 31.403 71.376 31.0613 71.1063 30.825L67.6251 27.7735L70.1422 23.8885C70.3371 23.5877 70.3919 23.2172 70.2927 22.8727C70.1933 22.5282 69.9496 22.2438 69.6244 22.093L65.4244 20.1458L66.7454 15.7088C66.8477 15.3654 66.7958 14.9943 66.6035 14.6918C66.4112 14.3895 66.0971 14.1854 65.7426 14.1323L61.1641 13.4473L61.1815 8.81792C61.1827 8.45949 61.0287 8.11808 60.7588 7.88199C60.4893 7.64589 60.131 7.53918 59.7751 7.58746L55.1892 8.22011L53.9017 3.77356C53.802 3.42935 53.5579 3.14497 53.2326 2.99466C52.9071 2.84451 52.5326 2.84232 52.2057 2.98935L47.9839 4.88825L45.4958 0.985138C45.3031 0.682952 44.9887 0.479046 44.6344 0.426234C44.2798 0.373734 43.9197 0.477327 43.6477 0.710452L40.1317 3.72216L36.6446 0.677483C36.3746 0.441703 36.0155 0.334516 35.6605 0.384047C35.3055 0.433421 34.9892 0.634358 34.7938 0.93467L32.2688 4.81481L28.0651 2.87591C27.7397 2.72576 27.3649 2.72419 27.0382 2.87169C26.7116 3.01919 26.4646 3.30091 26.3616 3.64419L25.0319 8.07855L20.4523 7.40246C20.0981 7.35074 19.7377 7.45418 19.4657 7.68777C19.1938 7.92121 19.0363 8.2612 19.0343 8.61948L19.0079 13.249L14.4234 13.8907C14.0684 13.9406 13.7525 14.1417 13.5573 14.4423C13.362 14.7429 13.3067 15.1134 13.4059 15.4581L14.6848 19.9073L10.4667 21.8146C10.1403 21.9624 9.89356 22.2443 9.7909 22.588C9.68825 22.9313 9.73965 23.3026 9.93184 23.6051L12.4125 27.5136L8.90262 30.5321C8.63091 30.7658 8.47372 31.106 8.472 31.4642C8.47028 31.8225 8.62403 32.1642 8.89372 32.4005L12.3751 35.452L9.85778 39.3372C9.66293 39.638 9.60793 40.0084 9.70731 40.353C9.80668 40.6975 10.0506 40.9819 10.3757 41.1326L14.5757 43.0797L13.2548 47.5167C13.1525 47.8601 13.2043 48.2312 13.3967 48.5337C13.589 48.8361 13.9031 49.0401 14.2576 49.0932L18.836 49.7784L18.8282 51.8568C18.7727 51.8962 18.7192 51.9396 18.6693 51.9893L15.0399 55.6187C14.5568 56.1021 14.5568 56.8852 15.0399 57.3685C15.2815 57.6101 15.5982 57.7309 15.9148 57.7309C16.2313 57.7309 16.5481 57.6101 16.7896 57.3685L19.0407 55.1174C19.0979 55.1998 19.1641 55.2762 19.241 55.3434C19.5107 55.5796 19.8695 55.6868 20.2248 55.6379L24.8107 55.0052L26.0983 59.4518C26.198 59.796 26.4421 60.0804 26.7674 60.2307C27.0929 60.381 27.4676 60.3834 27.7943 60.236L32.0161 58.337L32.7047 59.4173L16.0815 76.0399L15.3974 68.8564C15.3412 68.2658 14.8737 67.7983 14.2831 67.7421L7.09951 67.058L12.6656 61.4919C13.1487 61.0085 13.1487 60.2254 12.6656 59.7421C12.1825 59.2591 11.399 59.2591 10.9159 59.7421L3.49233 67.1657C2.76624 67.8918 3.22999 69.1752 4.24983 69.2724L13.0309 70.1088L13.8671 78.8898C13.9642 79.9083 15.2476 80.3734 15.9738 79.6475L34.0671 61.554C34.233 61.8144 34.3841 62.0957 34.5749 62.3391C35.0027 62.8851 35.8257 62.9663 36.3527 62.5148L39.8686 59.503L43.3559 62.5477C43.9305 63.0498 44.8005 62.8958 45.2153 62.2776C45.4087 61.9891 45.5942 61.6952 45.7836 61.4043L64.0269 79.6475C64.7532 80.3734 66.0366 79.9083 66.1337 78.8898L66.9699 70.1088L75.751 69.2724C76.7707 69.175 77.2346 67.8918 76.5085 67.1655ZM46.2412 56.1638L43.9095 59.7463L40.6898 56.9352C40.4569 56.7318 40.1666 56.6299 39.8761 56.6299C39.5895 56.6299 39.3028 56.7292 39.0713 56.9276L35.825 59.708L35.6241 59.3927C35.6039 59.1057 35.4853 58.8243 35.2658 58.6046C35.1821 58.5209 35.0888 58.4526 34.99 58.3979L33.5275 56.1035C33.1972 55.5852 32.5368 55.3879 31.9766 55.6401L28.0786 57.3934L26.8901 53.2879C26.7191 52.6978 26.141 52.3221 25.5326 52.4064L21.2984 52.9906L21.3143 48.7165C21.3166 48.102 20.8677 47.579 20.2601 47.4884L16.0328 46.8557L17.2524 42.7592C17.4277 42.1705 17.1443 41.542 16.587 41.2837L12.7092 39.4862L15.0334 35.8991C15.3674 35.3836 15.2726 34.7008 14.8106 34.296L11.5964 31.4785L14.837 28.6914C15.3029 28.2907 15.4042 27.6091 15.0748 27.0904L12.7845 23.4815L16.679 21.7204C17.2387 21.4673 17.5279 20.8416 17.3584 20.2512L16.1776 16.1435L20.4107 15.551C21.0191 15.4657 21.4729 14.9471 21.4763 14.3327L21.5005 10.0584L25.729 10.6826C26.3371 10.7724 26.9182 10.4023 27.0947 9.81385L28.3222 5.71965L32.2035 7.50996C32.7614 7.76699 33.4236 7.57589 33.7586 7.06121L36.09 3.47857L39.3097 6.28965C39.7727 6.69387 40.4619 6.69715 40.9283 6.29746L44.1745 3.517L46.4719 7.12137C46.8022 7.63949 47.4623 7.83699 48.0228 7.5848L51.9209 5.83153L53.1098 9.93714C53.2807 10.5274 53.8596 10.9034 54.4673 10.8187L58.7015 10.2345L58.6856 14.5087C58.6832 15.1232 59.1321 15.6462 59.7399 15.7368L63.9671 16.3693L62.7474 20.4658C62.5721 21.0546 62.8555 21.683 63.4129 21.9413L67.2908 23.739L64.9666 27.326C64.6326 27.8414 64.7274 28.5243 65.1894 28.9291L68.4037 31.7466L65.163 34.5336C64.6971 34.9344 64.5959 35.6159 64.9252 36.1347L67.2155 39.7436L63.321 41.5047C62.7612 41.7578 62.472 42.3833 62.6416 42.9739L63.8223 47.0817L59.5893 47.674C58.9809 47.7593 58.5271 48.2779 58.5237 48.8923L58.4995 53.1667L54.271 52.5424C53.6639 52.4537 53.0818 52.8226 52.9053 53.4112L51.6778 57.5054L47.7965 55.7151C47.2383 55.4577 46.5762 55.649 46.2412 56.1638ZM65.7173 67.7421C65.1266 67.7983 64.659 68.2658 64.6029 68.8564L63.9188 76.0399L47.1629 59.2838L47.7315 58.4102L51.9353 60.3491C52.2607 60.4994 52.6354 60.501 52.9621 60.3534C53.2889 60.2059 53.5357 59.9241 53.6387 59.5809L54.9684 55.1465L59.5481 55.8226C59.9029 55.8749 60.2627 55.771 60.5346 55.5373C60.6924 55.4017 60.8102 55.2296 60.8831 55.0396L72.9013 67.0577L65.7173 67.7421Z" fill="url(#paint0_linear)"/>
<path d="M39.9999 6.62012C26.2188 6.62012 15.0073 17.8318 15.0073 31.6127C15.0073 45.3936 26.2188 56.6054 39.9999 56.6054C44.7456 56.6054 49.3637 55.2693 53.3548 52.7415C57.2379 50.2821 60.3674 46.8095 62.4051 42.6987C62.7087 42.0865 62.4582 41.3442 61.846 41.0406C61.234 40.7372 60.4915 40.9876 60.1879 41.5997C56.3563 49.329 48.6206 54.1306 39.9999 54.1306C27.5833 54.1306 17.4817 44.029 17.4817 31.6124C17.4817 19.1957 27.5833 9.09448 39.9999 9.09448C52.4164 9.09448 62.518 19.196 62.518 31.6125C62.518 33.0794 62.3762 34.5461 62.0965 35.9723C61.9651 36.6428 62.4019 37.2931 63.0726 37.4245C63.7426 37.5564 64.3933 37.1191 64.5248 36.4486C64.8351 34.8659 64.9924 33.2389 64.9924 31.6127C64.9924 17.8318 53.7809 6.62012 39.9999 6.62012Z" fill="url(#paint1_linear)"/>
<path d="M58.5207 27.943L51.592 17.3851C51.3636 17.0365 50.9747 16.8267 50.5578 16.8267H29.4421C29.0252 16.8267 28.6365 17.0365 28.4076 17.3851L21.4788 27.943C21.179 28.4002 21.2145 29 21.5665 29.4183L39.0531 50.2043C39.2883 50.4839 39.6349 50.6451 39.9999 50.6451C40.3649 50.6451 40.7116 50.4837 40.9466 50.2043L58.4332 29.4183C58.7853 29 58.8209 28.4002 58.5207 27.943ZM50.6858 20.514L54.9782 27.0547H47.3098L50.6858 20.514ZM48.5272 19.3012L45.2611 25.6291L41.8861 19.3012H48.5272V19.3012ZM43.2169 27.0547H36.7832L40 21.023L43.2169 27.0547ZM38.1139 19.3012L34.721 25.6629L31.3282 19.3012H38.1139V19.3012ZM29.2351 20.6346L32.659 27.0547H25.0218L29.2351 20.6346ZM24.8935 29.5293H33.7664L37.7863 44.8545L24.8935 29.5293ZM40.0002 43.5414L36.3247 29.5293H43.6755L40.0002 43.5414ZM42.2139 44.8545L46.2337 29.5293H55.1065L42.2139 44.8545Z" fill="url(#paint2_linear)"/>
<path d="M78.7655 7.26935C77.9255 7.15763 75.8086 6.68997 74.2974 4.76311C73.2236 3.39327 72.9658 1.90718 72.9077 1.14343C72.8585 0.498436 72.3208 0 71.6738 0C71.0267 0 70.4891 0.498436 70.44 1.14343C70.3817 1.90734 70.1239 3.39342 69.0503 4.76311C67.5389 6.69013 65.4221 7.15778 64.5822 7.26935C63.9672 7.35106 63.508 7.87544 63.508 8.4959C63.508 9.11637 63.9674 9.64059 64.5822 9.72246C65.4222 9.83418 67.5391 10.3018 69.0503 12.2287C70.1241 13.5985 70.3819 15.0846 70.44 15.8484C70.4892 16.4934 71.0267 16.9918 71.6738 16.9918C72.3208 16.9918 72.8585 16.4934 72.9075 15.8484C72.9658 15.0845 73.2236 13.5984 74.297 12.2289C75.8086 10.3017 77.9255 9.83402 78.7653 9.72246C79.3803 9.64074 79.8395 9.11637 79.8395 8.4959C79.8397 7.87544 79.3805 7.35106 78.7655 7.26935ZM72.3499 10.702C72.0925 11.0303 71.8686 11.362 71.6739 11.6929C71.4791 11.362 71.255 11.0301 70.9977 10.7018C70.2211 9.71168 69.3321 9.00293 68.4636 8.4959C69.3322 7.98888 70.2214 7.28013 70.9977 6.28998L70.9978 6.28982C71.2552 5.96154 71.4791 5.62982 71.6738 5.29889C71.8686 5.62982 72.0927 5.9617 72.35 6.28998C73.1266 7.28013 74.0156 7.98888 74.8841 8.4959C74.0156 9.00293 73.1264 9.71184 72.3499 10.702Z" fill="url(#paint3_linear)"/>
<path d="M15.4178 7.26935C14.5779 7.15763 12.461 6.68997 10.9496 4.76311C9.8759 3.39327 9.61808 1.90718 9.55996 1.14343C9.51074 0.498436 8.97309 0 8.32621 0C7.67919 0 7.14153 0.498436 7.09247 1.14343C7.03419 1.90734 6.77638 3.39342 5.70294 4.76295C4.19139 6.69013 2.07452 7.15778 1.23468 7.26935C0.619682 7.35122 0.160309 7.87544 0.160309 8.4959C0.160309 9.11637 0.619682 9.64059 1.23452 9.72246C2.07452 9.83402 4.19139 10.3017 5.70263 12.2287C6.77638 13.5985 7.03419 15.0846 7.09231 15.8484C7.14169 16.4934 7.67934 16.9918 8.32606 16.9918C8.97293 16.9918 9.51074 16.4934 9.5598 15.8484C9.61808 15.0845 9.8759 13.5984 10.9493 12.2289C12.4609 10.3017 14.5778 9.83402 15.4176 9.72246C16.0326 9.64074 16.4918 9.11637 16.4918 8.4959C16.4921 7.87544 16.0326 7.35106 15.4178 7.26935ZM9.00199 10.702C8.74465 11.0303 8.52075 11.362 8.32606 11.6929C8.13122 11.362 7.90715 11.0301 7.64981 10.7018C6.87341 9.71168 5.98435 9.00293 5.11576 8.4959C5.98435 7.98888 6.87372 7.27997 7.65012 6.28982C7.90747 5.96154 8.13137 5.62982 8.32606 5.29889C8.52075 5.62982 8.74481 5.96154 9.00199 6.28982L9.00215 6.28998C9.77871 7.28013 10.6679 7.98888 11.5364 8.4959C10.6679 9.00293 9.77871 9.71184 9.00199 10.702Z" fill="url(#paint4_linear)"/>
<path d="M47.0917 69.6273C46.2519 69.5155 44.135 69.0479 42.6236 67.121C41.5498 65.7512 41.292 64.2651 41.2339 63.5013C41.1847 62.8563 40.6472 62.3579 40.0002 62.3579C39.3531 62.3579 38.8155 62.8563 38.7664 63.5013C38.7081 64.2652 38.4503 65.7513 37.3769 67.1209C35.8653 69.048 33.7485 69.5157 32.9086 69.6273C32.2936 69.709 31.8344 70.2333 31.8344 70.8538C31.8344 71.4743 32.2938 71.9985 32.9086 72.0804C33.7486 72.1921 35.8655 72.6597 37.3767 74.5866C38.4505 75.9564 38.7083 77.4425 38.7664 78.2063C38.8156 78.8513 39.3531 79.3497 40.0002 79.3497C40.6472 79.3497 41.1848 78.8513 41.2339 78.2063C41.2922 77.4424 41.55 75.9563 42.6234 74.5868C44.135 72.6596 46.2519 72.1919 47.0917 72.0804C47.7067 71.9987 48.1659 71.4743 48.1659 70.8538C48.1659 70.2333 47.7067 69.709 47.0917 69.6273ZM40.6759 73.0599C40.4186 73.3882 40.1947 73.7199 40 74.0508C39.8052 73.7199 39.5811 73.388 39.3238 73.0597C38.5472 72.0696 37.6581 71.3608 36.7897 70.8538C37.6583 70.3466 38.5475 69.6379 39.3241 68.6477C39.5814 68.3194 39.8053 67.9877 40 67.6568C40.1947 67.9877 40.4188 68.3194 40.6759 68.6477L40.6761 68.6479C41.4527 69.638 42.3417 70.3468 43.2101 70.8538C42.3419 71.3608 41.4525 72.0697 40.6759 73.0599Z" fill="url(#paint5_linear)"/>
</g>
<defs>
<linearGradient id="paint0_linear" x1="40.0004" y1="0.372192" x2="40.0004" y2="80" gradientUnits="userSpaceOnUse">
<stop stop-color="#005E7F"/>
<stop offset="1" stop-color="#61B6CD"/>
</linearGradient>
<linearGradient id="paint1_linear" x1="39.9999" y1="6.62012" x2="39.9999" y2="56.6054" gradientUnits="userSpaceOnUse">
<stop stop-color="#005E7F"/>
<stop offset="1" stop-color="#61B6CD"/>
</linearGradient>
<linearGradient id="paint2_linear" x1="39.9999" y1="16.8267" x2="39.9999" y2="50.6451" gradientUnits="userSpaceOnUse">
<stop stop-color="#005E7F"/>
<stop offset="1" stop-color="#61B6CD"/>
</linearGradient>
<linearGradient id="paint3_linear" x1="71.6738" y1="0" x2="71.6738" y2="16.9918" gradientUnits="userSpaceOnUse">
<stop stop-color="#005E7F"/>
<stop offset="1" stop-color="#61B6CD"/>
</linearGradient>
<linearGradient id="paint4_linear" x1="8.32606" y1="0" x2="8.32606" y2="16.9918" gradientUnits="userSpaceOnUse">
<stop stop-color="#005E7F"/>
<stop offset="1" stop-color="#61B6CD"/>
</linearGradient>
<linearGradient id="paint5_linear" x1="40.0002" y1="62.3579" x2="40.0002" y2="79.3497" gradientUnits="userSpaceOnUse">
<stop stop-color="#005E7F"/>
<stop offset="1" stop-color="#61B6CD"/>
</linearGradient>
<clipPath id="clip0">
<rect width="80" height="80" fill="white"/>
</clipPath>
</defs>
</svg>
